<svg width="188" height="26" viewBox="0 0 188 26" fill="none" xmlns="http://www.w3.org/2000/svg">
<path d="M3.736 3.496C3.496 3.08 3.272 2.744 3.064 2.488C2.856 2.216 2.64 2 2.416 1.84C2.208 1.68 1.984 1.576 1.744 1.528C1.504 1.464 1.216 1.432 0.88 1.432V0.519999H8.44V1.432C7.64 1.432 7.072 1.496 6.736 1.624C6.416 1.736 6.256 1.944 6.256 2.248C6.256 2.584 6.44 3.064 6.808 3.688L10.528 10.048H10.624L13.336 5.488C13.848 4.624 14.208 3.944 14.416 3.448C14.64 2.952 14.752 2.552 14.752 2.248C14.752 1.944 14.632 1.736 14.392 1.624C14.168 1.496 13.768 1.432 13.192 1.432V0.519999H18.688V1.432C18.352 1.432 18.048 1.48 17.776 1.576C17.52 1.672 17.248 1.864 16.96 2.152C16.672 2.44 16.352 2.84 16 3.352C15.664 3.864 15.248 4.536 14.752 5.368L11.056 11.608V14.464C11.056 15.248 11.08 15.88 11.128 16.36C11.192 16.824 11.312 17.184 11.488 17.44C11.68 17.696 11.944 17.872 12.28 17.968C12.632 18.048 13.096 18.088 13.672 18.088V19H5.896V18.088C6.472 18.088 6.928 18.048 7.264 17.968C7.616 17.872 7.88 17.704 8.056 17.464C8.248 17.208 8.376 16.856 8.44 16.408C8.504 15.96 8.536 15.368 8.536 14.632V11.704L3.736 3.496ZM23.9875 6.04C24.8995 6.04 25.7635 6.208 26.5795 6.544C27.3955 6.864 28.1075 7.312 28.7155 7.888C29.3395 8.464 29.8275 9.152 30.1795 9.952C30.5475 10.736 30.7315 11.6 30.7315 12.544C30.7315 13.52 30.5475 14.416 30.1795 15.232C29.8275 16.048 29.3395 16.752 28.7155 17.344C28.1075 17.936 27.3955 18.4 26.5795 18.736C25.7635 19.072 24.8995 19.24 23.9875 19.24C23.0915 19.24 22.2355 19.08 21.4195 18.76C20.6195 18.424 19.9155 17.96 19.3075 17.368C18.6995 16.776 18.2195 16.072 17.8675 15.256C17.5155 14.424 17.3395 13.52 17.3395 12.544C17.3395 11.6 17.5155 10.728 17.8675 9.928C18.2195 9.128 18.6995 8.44 19.3075 7.864C19.9155 7.288 20.6195 6.84 21.4195 6.52C22.2355 6.2 23.0915 6.04 23.9875 6.04ZM23.9875 7.192C23.3955 7.192 22.8515 7.32 22.3555 7.576C21.8755 7.832 21.4595 8.2 21.1075 8.68C20.7715 9.144 20.5075 9.712 20.3155 10.384C20.1395 11.04 20.0515 11.768 20.0515 12.568C20.0515 13.4 20.1395 14.152 20.3155 14.824C20.5075 15.496 20.7715 16.072 21.1075 16.552C21.4595 17.016 21.8755 17.376 22.3555 17.632C22.8355 17.888 23.3795 18.016 23.9875 18.016C24.5955 18.016 25.1475 17.888 25.6435 17.632C26.1395 17.376 26.5635 17.008 26.9155 16.528C27.2675 16.048 27.5395 15.472 27.7315 14.8C27.9235 14.128 28.0195 13.384 28.0195 12.568C28.0195 11.768 27.9235 11.04 27.7315 10.384C27.5395 9.728 27.2675 9.168 26.9155 8.704C26.5635 8.224 26.1395 7.856 25.6435 7.6C25.1475 7.328 24.5955 7.192 23.9875 7.192ZM43.0026 10.12C43.0026 9.464 42.9866 8.952 42.9546 8.584C42.9226 8.2 42.8346 7.912 42.6906 7.72C42.5626 7.512 42.3626 7.376 42.0906 7.312C41.8346 7.232 41.4746 7.168 41.0106 7.12V6.28H45.3546V13.648C45.3546 14.56 45.3626 15.304 45.3786 15.88C45.4106 16.456 45.4506 16.888 45.4986 17.176C45.5306 17.384 45.5786 17.552 45.6426 17.68C45.7226 17.792 45.8346 17.888 45.9786 17.968C46.1226 18.032 46.3066 18.08 46.5306 18.112C46.7706 18.128 47.0746 18.136 47.4426 18.136V18.976L43.4826 19.264L43.2186 16.384H43.1226C42.5146 17.376 41.8106 18.104 41.0106 18.568C40.2266 19.016 39.4026 19.24 38.5386 19.24C37.8666 19.24 37.2106 19.112 36.5706 18.856C35.9466 18.6 35.4746 18.256 35.1546 17.824C34.8826 17.472 34.6826 16.984 34.5546 16.36C34.4426 15.736 34.3866 14.928 34.3866 13.936V10.12C34.3866 9.464 34.3706 8.952 34.3386 8.584C34.3066 8.2 34.2186 7.912 34.0746 7.72C33.9466 7.512 33.7466 7.376 33.4746 7.312C33.2186 7.232 32.8586 7.168 32.3946 7.12V6.28H36.7386V12.832C36.7386 14.576 36.9386 15.84 37.3386 16.624C37.7546 17.408 38.4106 17.8 39.3066 17.8C40.7146 17.8 41.8106 16.88 42.5946 15.04C42.6746 14.848 42.7386 14.672 42.7866 14.512C42.8346 14.352 42.8746 14.176 42.9066 13.984C42.9386 13.792 42.9626 13.576 42.9786 13.336C42.9946 13.096 43.0026 12.808 43.0026 12.472V10.12ZM53.2968 15.184C53.2968 15.84 53.3128 16.36 53.3448 16.744C53.3768 17.128 53.4568 17.424 53.5848 17.632C53.7288 17.824 53.9288 17.952 54.1848 18.016C54.4408 18.08 54.8008 18.128 55.2648 18.16V19H48.8808V18.16C49.3448 18.144 49.7128 18.104 49.9848 18.04C50.2568 17.96 50.4648 17.824 50.6088 17.632C50.7528 17.44 50.8408 17.168 50.8728 16.816C50.9208 16.448 50.9448 15.96 50.9448 15.352V12.544C50.9448 11.456 50.9288 10.608 50.8968 10C50.8808 9.392 50.8008 8.944 50.6568 8.656C50.5288 8.368 50.3208 8.2 50.0328 8.152C49.7448 8.088 49.3448 8.056 48.8328 8.056V7.216L53.0328 6.304L53.3688 9.28H53.4648C53.6728 8.8 53.9288 8.36 54.2328 7.96C54.5528 7.56 54.8968 7.224 55.2648 6.952C55.6328 6.664 56.0168 6.44 56.4168 6.28C56.8168 6.12 57.2248 6.04 57.6408 6.04C58.1528 6.04 58.5528 6.168 58.8408 6.424C59.1448 6.664 59.2968 6.992 59.2968 7.408C59.2968 7.792 59.1768 8.096 58.9368 8.32C58.6968 8.528 58.3528 8.632 57.9048 8.632C57.6488 8.632 57.4328 8.6 57.2568 8.536C57.0808 8.472 56.9208 8.408 56.7768 8.344C56.6488 8.264 56.5208 8.192 56.3928 8.128C56.2808 8.064 56.1528 8.032 56.0088 8.032C55.5768 8.032 55.1448 8.312 54.7128 8.872C54.2808 9.416 53.9448 10.112 53.7048 10.96C53.5768 11.424 53.4728 11.952 53.3928 12.544C53.3288 13.12 53.2968 13.728 53.2968 14.368V15.184ZM82.2001 0.519999H82.8721L83.0881 6.04H82.2001C81.8481 4.632 81.1681 3.528 80.1601 2.728C79.1521 1.928 77.9361 1.528 76.5121 1.528C75.5361 1.528 74.6641 1.72 73.8961 2.104C73.1281 2.488 72.4801 3.04 71.9521 3.76C71.4241 4.48 71.0161 5.36 70.7281 6.4C70.4561 7.44 70.3201 8.616 70.3201 9.928C70.3201 12.504 70.8561 14.488 71.9281 15.88C73.0001 17.256 74.5521 17.944 76.5841 17.944C79.6721 17.944 81.6561 16.304 82.5361 13.024H83.5201V19H82.6801L82.1281 17.104C80.4481 18.528 78.4161 19.24 76.0321 19.24C74.6721 19.24 73.4401 19.024 72.3361 18.592C71.2481 18.16 70.3121 17.552 69.5281 16.768C68.7601 15.968 68.1601 15 67.7281 13.864C67.3121 12.728 67.1041 11.464 67.1041 10.072C67.1041 8.616 67.3281 7.288 67.7761 6.088C68.2241 4.888 68.8481 3.856 69.6481 2.992C70.4641 2.128 71.4321 1.464 72.5521 0.999999C73.6881 0.519999 74.9361 0.279999 76.2961 0.279999C77.2561 0.279999 78.1601 0.415999 79.0081 0.688C79.8561 0.959999 80.7761 1.4 81.7681 2.008L82.2001 0.519999ZM92.7063 6.04C93.6183 6.04 94.4823 6.208 95.2983 6.544C96.1143 6.864 96.8263 7.312 97.4343 7.888C98.0583 8.464 98.5463 9.152 98.8983 9.952C99.2663 10.736 99.4503 11.6 99.4503 12.544C99.4503 13.52 99.2663 14.416 98.8983 15.232C98.5463 16.048 98.0583 16.752 97.4343 17.344C96.8263 17.936 96.1143 18.4 95.2983 18.736C94.4823 19.072 93.6183 19.24 92.7063 19.24C91.8103 19.24 90.9543 19.08 90.1383 18.76C89.3383 18.424 88.6343 17.96 88.0263 17.368C87.4183 16.776 86.9383 16.072 86.5863 15.256C86.2343 14.424 86.0583 13.52 86.0583 12.544C86.0583 11.6 86.2343 10.728 86.5863 9.928C86.9383 9.128 87.4183 8.44 88.0263 7.864C88.6343 7.288 89.3383 6.84 90.1383 6.52C90.9543 6.2 91.8103 6.04 92.7063 6.04ZM92.7063 7.192C92.1143 7.192 91.5703 7.32 91.0742 7.576C90.5943 7.832 90.1783 8.2 89.8263 8.68C89.4903 9.144 89.2263 9.712 89.0343 10.384C88.8583 11.04 88.7703 11.768 88.7703 12.568C88.7703 13.4 88.8583 14.152 89.0343 14.824C89.2263 15.496 89.4903 16.072 89.8263 16.552C90.1783 17.016 90.5943 17.376 91.0742 17.632C91.5543 17.888 92.0983 18.016 92.7063 18.016C93.3143 18.016 93.8663 17.888 94.3623 17.632C94.8583 17.376 95.2823 17.008 95.6343 16.528C95.9863 16.048 96.2583 15.472 96.4503 14.8C96.6423 14.128 96.7383 13.384 96.7383 12.568C96.7383 11.768 96.6423 11.04 96.4503 10.384C96.2583 9.728 95.9863 9.168 95.6343 8.704C95.2823 8.224 94.8583 7.856 94.3623 7.6C93.8663 7.328 93.3143 7.192 92.7063 7.192ZM105.913 15.16C105.913 15.832 105.929 16.36 105.961 16.744C105.993 17.128 106.073 17.424 106.201 17.632C106.345 17.824 106.545 17.952 106.801 18.016C107.057 18.08 107.417 18.128 107.881 18.16V19H101.497V18.16C101.961 18.128 102.329 18.08 102.601 18.016C102.873 17.952 103.081 17.824 103.225 17.632C103.369 17.44 103.457 17.168 103.489 16.816C103.537 16.448 103.561 15.96 103.561 15.352V12.28C103.561 11.368 103.545 10.608 103.513 10C103.497 9.392 103.457 8.976 103.393 8.752C103.345 8.544 103.289 8.384 103.225 8.272C103.161 8.144 103.057 8.048 102.913 7.984C102.769 7.904 102.577 7.856 102.337 7.84C102.113 7.808 101.817 7.792 101.449 7.792V6.952L105.361 6.04L105.673 8.44H105.793C106.513 7.624 107.265 7.024 108.049 6.64C108.849 6.24 109.729 6.04 110.689 6.04C111.697 6.04 112.545 6.248 113.233 6.664C113.921 7.064 114.401 7.648 114.673 8.416H114.769C115.361 7.664 116.081 7.08 116.929 6.664C117.777 6.248 118.681 6.04 119.641 6.04C120.393 6.04 121.073 6.168 121.681 6.424C122.305 6.664 122.777 7 123.097 7.432C123.385 7.8 123.585 8.288 123.697 8.896C123.825 9.488 123.889 10.304 123.889 11.344V15.16C123.889 15.816 123.905 16.336 123.937 16.72C123.985 17.104 124.073 17.4 124.201 17.608C124.329 17.816 124.521 17.952 124.777 18.016C125.049 18.08 125.417 18.128 125.881 18.16V19H119.497V18.16C119.945 18.144 120.305 18.104 120.577 18.04C120.849 17.96 121.057 17.824 121.201 17.632C121.345 17.424 121.433 17.144 121.465 16.792C121.513 16.44 121.537 15.96 121.537 15.352V12.328C121.537 11.416 121.489 10.648 121.393 10.024C121.297 9.384 121.137 8.872 120.913 8.488C120.689 8.088 120.393 7.8 120.025 7.624C119.673 7.448 119.241 7.36 118.729 7.36C118.025 7.36 117.361 7.56 116.737 7.96C116.129 8.344 115.649 8.864 115.297 9.52C115.217 9.68 115.145 9.84 115.081 10C115.033 10.144 114.993 10.312 114.961 10.504C114.929 10.68 114.905 10.896 114.889 11.152C114.889 11.408 114.889 11.728 114.889 12.112V15.16C114.889 15.816 114.905 16.336 114.937 16.72C114.969 17.104 115.049 17.4 115.177 17.608C115.321 17.816 115.529 17.952 115.801 18.016C116.073 18.08 116.441 18.128 116.905 18.16V19H110.521V18.16C110.969 18.128 111.329 18.08 111.601 18.016C111.873 17.952 112.073 17.824 112.201 17.632C112.345 17.44 112.433 17.168 112.465 16.816C112.513 16.448 112.537 15.96 112.537 15.352V12.328C112.537 11.4 112.489 10.624 112.393 10C112.297 9.36 112.137 8.848 111.913 8.464C111.705 8.064 111.425 7.784 111.073 7.624C110.721 7.448 110.289 7.36 109.777 7.36C109.057 7.36 108.377 7.56 107.737 7.96C107.113 8.344 106.641 8.864 106.321 9.52C106.241 9.68 106.169 9.84 106.105 10C106.057 10.144 106.017 10.312 105.985 10.504C105.953 10.68 105.929 10.896 105.913 11.152C105.913 11.408 105.913 11.728 105.913 12.112V15.16ZM131.407 8.008H131.503C132.015 7.4 132.567 6.92 133.159 6.568C133.751 6.216 134.439 6.04 135.223 6.04C136.135 6.04 136.967 6.208 137.719 6.544C138.487 6.864 139.151 7.32 139.711 7.912C140.271 8.504 140.703 9.208 141.007 10.024C141.327 10.824 141.487 11.704 141.487 12.664C141.487 13.64 141.327 14.536 141.007 15.352C140.687 16.152 140.247 16.84 139.687 17.416C139.127 17.992 138.463 18.44 137.695 18.76C136.927 19.08 136.095 19.24 135.199 19.24C134.463 19.24 133.791 19.12 133.183 18.88C132.591 18.624 132.031 18.216 131.503 17.656V21.16C131.503 21.8 131.535 22.312 131.599 22.696C131.663 23.08 131.791 23.376 131.983 23.584C132.175 23.792 132.447 23.936 132.799 24.016C133.167 24.096 133.647 24.144 134.239 24.16V25H126.847V24.16C127.327 24.144 127.711 24.096 127.999 24.016C128.303 23.936 128.535 23.792 128.695 23.584C128.871 23.376 128.991 23.088 129.055 22.72C129.119 22.368 129.151 21.904 129.151 21.328V12.352C129.151 11.424 129.135 10.664 129.103 10.072C129.087 9.48 129.047 9.072 128.983 8.848C128.903 8.464 128.719 8.208 128.431 8.08C128.143 7.936 127.599 7.864 126.799 7.864V7.048L131.407 6.136V8.008ZM132.127 8.704C131.919 9.024 131.759 9.408 131.647 9.856C131.551 10.288 131.503 10.856 131.503 11.56V13.432C131.503 13.864 131.511 14.24 131.527 14.56C131.559 14.864 131.599 15.128 131.647 15.352C131.695 15.576 131.759 15.776 131.839 15.952C131.919 16.128 132.023 16.296 132.151 16.456C132.519 16.968 132.959 17.368 133.471 17.656C133.983 17.928 134.519 18.064 135.079 18.064C136.183 18.064 137.071 17.6 137.743 16.672C138.431 15.744 138.775 14.44 138.775 12.76C138.775 11.928 138.679 11.176 138.487 10.504C138.311 9.816 138.055 9.232 137.719 8.752C137.383 8.256 136.975 7.872 136.495 7.6C136.031 7.328 135.511 7.192 134.935 7.192C134.359 7.192 133.823 7.328 133.327 7.6C132.847 7.856 132.447 8.224 132.127 8.704ZM151.032 11.896C150.12 12.248 149.344 12.592 148.704 12.928C148.08 13.264 147.576 13.6 147.192 13.936C146.808 14.272 146.528 14.608 146.352 14.944C146.192 15.28 146.112 15.624 146.112 15.976C146.112 16.504 146.288 16.936 146.64 17.272C146.992 17.608 147.456 17.776 148.032 17.776C148.448 17.776 148.832 17.672 149.184 17.464C149.552 17.256 149.872 16.976 150.144 16.624C150.416 16.256 150.632 15.832 150.792 15.352C150.952 14.856 151.032 14.336 151.032 13.792V11.896ZM151.032 10.864V9.88C151.032 7.928 150.2 6.952 148.536 6.952C148.264 6.952 148.032 6.976 147.84 7.024C147.648 7.072 147.488 7.152 147.36 7.264C147.232 7.376 147.112 7.536 147 7.744C146.904 7.952 146.808 8.208 146.712 8.512C146.536 8.976 146.36 9.288 146.184 9.448C146.024 9.592 145.784 9.664 145.464 9.664C144.664 9.664 144.264 9.264 144.264 8.464C144.264 7.696 144.672 7.104 145.488 6.688C146.304 6.256 147.464 6.04 148.968 6.04C150.568 6.04 151.704 6.328 152.376 6.904C153.048 7.464 153.384 8.424 153.384 9.784V15.16C153.384 16.984 153.744 17.896 154.464 17.896C154.688 17.896 154.904 17.872 155.112 17.824C155.32 17.76 155.496 17.608 155.64 17.368L155.976 17.944C155.784 18.312 155.432 18.624 154.92 18.88C154.408 19.12 153.872 19.24 153.312 19.24C152.608 19.24 152.08 19.016 151.728 18.568C151.392 18.12 151.224 17.488 151.224 16.672H151.104C150.688 17.456 150.112 18.08 149.376 18.544C148.64 18.992 147.824 19.216 146.928 19.216C145.92 19.216 145.128 18.96 144.552 18.448C143.976 17.936 143.688 17.248 143.688 16.384C143.688 16 143.752 15.632 143.88 15.28C144.024 14.928 144.248 14.592 144.552 14.272C144.856 13.952 145.256 13.64 145.752 13.336C146.248 13.016 146.856 12.696 147.576 12.376L151.032 10.864ZM161.129 15.232C161.129 15.888 161.145 16.408 161.177 16.792C161.209 17.16 161.289 17.448 161.417 17.656C161.561 17.848 161.761 17.976 162.017 18.04C162.289 18.104 162.657 18.152 163.121 18.184V19H156.833V18.184C157.281 18.152 157.633 18.104 157.889 18.04C158.161 17.976 158.369 17.848 158.513 17.656C158.657 17.464 158.745 17.192 158.777 16.84C158.825 16.488 158.849 16.008 158.849 15.4V12.208C158.849 10.304 158.801 9.144 158.705 8.728C158.657 8.52 158.593 8.352 158.513 8.224C158.449 8.08 158.345 7.976 158.201 7.912C158.057 7.832 157.873 7.784 157.649 7.768C157.425 7.736 157.137 7.72 156.785 7.72V6.952L160.625 6.04L160.913 8.416H161.009C161.617 7.664 162.329 7.08 163.145 6.664C163.961 6.248 164.849 6.04 165.809 6.04C166.545 6.04 167.217 6.16 167.825 6.4C168.433 6.64 168.897 6.968 169.217 7.384C169.489 7.752 169.681 8.232 169.793 8.824C169.905 9.4 169.961 10.2 169.961 11.224V15.232C169.961 15.888 169.977 16.408 170.009 16.792C170.057 17.16 170.145 17.448 170.273 17.656C170.401 17.848 170.593 17.976 170.849 18.04C171.121 18.104 171.473 18.152 171.905 18.184V19H165.689V18.184C166.137 18.168 166.489 18.128 166.745 18.064C167.017 17.984 167.217 17.848 167.345 17.656C167.489 17.464 167.577 17.192 167.609 16.84C167.657 16.472 167.681 15.992 167.681 15.4V12.232C167.681 11.32 167.633 10.552 167.537 9.928C167.441 9.304 167.281 8.8 167.057 8.416C166.849 8.032 166.569 7.76 166.217 7.6C165.865 7.424 165.441 7.336 164.945 7.336C164.225 7.336 163.561 7.528 162.953 7.912C162.361 8.28 161.897 8.792 161.561 9.448C161.481 9.608 161.409 9.76 161.345 9.904C161.297 10.048 161.257 10.216 161.225 10.408C161.193 10.6 161.169 10.824 161.153 11.08C161.137 11.32 161.129 11.632 161.129 12.016V15.232ZM178.767 22.768C178.031 24.416 176.887 25.24 175.335 25.24C174.327 25.24 173.823 24.864 173.823 24.112C173.823 23.712 173.959 23.416 174.231 23.224C174.519 23.048 175.039 22.896 175.791 22.768C176.127 22.72 176.415 22.648 176.655 22.552C176.895 22.472 177.111 22.36 177.303 22.216C177.495 22.088 177.663 21.92 177.807 21.712C177.967 21.504 178.119 21.248 178.263 20.944L179.103 19.264L174.495 9.256C174.287 8.808 174.103 8.456 173.943 8.2C173.799 7.928 173.639 7.72 173.463 7.576C173.303 7.416 173.119 7.312 172.911 7.264C172.703 7.2 172.439 7.152 172.119 7.12V6.28H178.479V7.12C177.407 7.12 176.871 7.384 176.871 7.912C176.871 8.12 176.935 8.448 177.063 8.896C177.191 9.344 177.351 9.8 177.543 10.264L180.183 16.648H180.303L182.487 11.248C182.695 10.72 182.863 10.288 182.991 9.952C183.135 9.616 183.239 9.344 183.303 9.136C183.383 8.912 183.431 8.728 183.447 8.584C183.479 8.44 183.495 8.304 183.495 8.176C183.495 7.76 183.375 7.48 183.135 7.336C182.911 7.192 182.471 7.12 181.815 7.12V6.28H187.095V7.12C186.791 7.12 186.535 7.16 186.327 7.24C186.119 7.32 185.903 7.504 185.679 7.792C185.471 8.064 185.231 8.464 184.959 8.992C184.703 9.52 184.383 10.232 183.999 11.128L178.767 22.768Z" fill="black"/>
</svg>
